<?xml version="1.0" encoding="UTF-8"?>
<svg width="135px" height="78px" viewBox="0 0 135 78" version="1.1" xmlns="http://www.w3.org/2000/svg" xmlns:xlink="http://www.w3.org/1999/xlink">
    <title>Group 22</title>
    <g id="Main" stroke="none" stroke-width="1" fill="none" fill-rule="evenodd">
        <g id="Group-22" fill="#666666">
            <g id="dkp" fill-rule="nonzero">
                <path d="M36.9414301,16.4473013 C33.4208365,15.247706 29.4701294,16.7008616 27.0187237,19.3375646 C23.7940875,22.8031522 23.6623706,27.6424568 25.3364815,31.8518742 C26.1292248,33.8442461 27.9074086,35.7900783 27.1447485,38.0809449 C26.2284182,40.8315893 22.5224448,40.1415205 20.3987062,39.5020036 C18.9522551,39.0679021 15.5713042,37.5754346 10.6792673,38.624171 C7.45581922,39.3152016 2.06627862,40.9665508 0.705455224,46.1443099 C-1.31219643,53.8212166 1.35823343,59.1761705 4.18283925,62.8953184 C6.63424498,66.1225915 10.1767918,68.4359254 13.782758,70.1667137 C17.8977056,72.1446416 22.7533601,73.2647996 27.2992351,72.2979013 C29.5937189,71.8100389 31.7353451,70.7998112 33.6948444,69.5424427 C37.6984018,66.9731414 40.743349,63.6816755 41.5279611,58.8560117 C42.2702944,54.2871172 41.6255305,49.8610507 38.7244971,46.1443099 C36.719466,43.5750087 34.5680821,41.373209 33.4590546,38.2478416 C32.9321856,36.7585781 32.6207796,35.0574796 33.1769192,33.5305029 C33.4915769,32.6703246 34.0948748,31.8976082 34.9120104,31.4659139 C36.7942671,30.4701289 38.3805663,31.770828 39.6578999,33.0450476 C40.7693666,34.154774 42.0670269,34.9194659 43.7151203,34.7453441 C45.9713897,34.5062278 47.6999762,32.5587904 47.765022,30.3521765 C47.8316944,28.0725435 46.6129019,25.8587083 45.4843603,23.948984 C43.5850248,20.7313418 40.575853,17.6878201 36.9414301,16.4473013 Z M8.67288432,51.8266769 C8.35884857,49.7436119 10.6340101,49.2316993 12.2276279,49.8270837 C13.2293309,50.2034119 17.3597257,51.0972923 18.7037305,51.5378131 C19.6265655,51.8403201 20.4591496,52.5841499 20.6372122,53.5558625 C20.9486182,55.237704 19.1266144,56.7299209 16.6244593,56.7299209 C11.6817178,56.7299209 9.02383794,54.1546261 8.67288432,51.8266769 Z" id="Shape"></path>
                <path d="M51.597412,1.3604814 C46.5962185,3.84312279 44.4806099,7.85434603 45.1692803,12.0565408 C45.6067124,14.730155 46.746637,17.189526 48.2800871,19.575879 C50.0745334,22.3682488 51.8445872,25.0964259 52.8666169,28.1375406 C53.4934944,30.0023303 53.49756,31.7395367 52.5584639,33.6292009 C50.9331364,36.9006066 47.6280071,39.6279817 46.4685696,43.0398083 C45.4896338,45.918838 46.8377041,49.2608545 48.66386,51.6825123 C51.1713678,55.0060739 55.8026154,56.8949348 61.0786269,56.5659482 C64.2341516,56.3693592 67.2693423,55.279693 68.4832553,52.8997594 C69.2808768,51.3358715 69.1759913,49.6010722 68.3612948,48.1278565 C67.3864233,46.3665777 65.5147357,45.5577533 63.5999555,44.4440147 C61.9177133,43.4650808 60.8753569,42.0303802 60.1411548,40.5226616 C59.6150983,39.4426239 59.431345,38.197291 60.0631007,37.094786 C61.1900159,35.1296956 64.3902597,34.0255867 67.0522515,34.2181634 C71.5867435,34.54715 72.3168801,38.4460358 73.1047452,41.1348946 C73.5893355,42.7894534 74.2991453,44.4865396 75.9391075,45.6139189 C77.1156199,46.4219414 78.685658,46.8672764 80.2971635,47.0566441 C82.5648158,47.3238451 85.1861541,47.0269555 86.8285554,45.7262564 C88.6693459,44.2682866 88.7108121,42.0079117 87.8684714,40.2105249 C86.2894895,36.8396218 82.244466,34.5311021 77.9921094,32.9423399 C76.809906,32.5010171 75.5870492,32.0966055 74.552824,31.4891843 C73.5185988,30.8825663 72.6721926,30.0368319 72.519335,29.0386399 C72.0323056,25.8619186 78.1449657,25.051489 81.0045329,24.2450717 C84.2413646,23.3327376 87.4294129,22.2230112 89.8922015,20.3076708 C92.6371256,18.1724709 94.8470494,15.1393796 94.9413658,12.2146135 C95.0251119,9.62284498 93.415233,6.81041507 90.2613348,5.67661635 C84.6495249,3.66017209 78.7181791,7.28062325 75.849668,10.872991 C74.6398194,12.3871289 73.7031623,13.9999635 72.7429268,15.5991562 C71.8688765,17.0539169 71.102152,18.5134919 69.3199026,19.514091 C67.7384816,20.4015508 65.2439832,20.6623325 64.1756092,19.299849 C62.9844621,17.7808969 64.3845688,15.9401795 65.1553589,14.4276455 C65.7204423,13.3195244 66.1001459,12.156839 66.2749555,10.9933517 C66.8920754,6.87139741 64.8024856,2.42446882 59.798853,0.513139422 C57.1604409,-0.494681114 54.1667163,0.0846554235 51.5974145,1.36047895 L51.597412,1.3604814 Z" id="Path"></path>
                <path d="M117.05005,31.0636445 C114.625474,32.693329 112.06593,35.0371546 109.065702,35.4945253 C106.725687,35.8499901 104.680816,34.7876054 103.330307,32.9348524 C101.000047,29.738873 100.606522,24.321837 95.9890975,23.2666749 C92.2928805,22.4217425 87.7754635,24.8971625 86.7412383,28.5448964 C85.9054023,31.4921298 87.2794902,34.5356515 89.2885869,36.6868992 C91.6733215,39.2417566 95.7305406,41.8263037 95.1475695,45.8351199 C94.944302,47.2337113 94.1336711,48.492685 93.1197726,49.4900738 C91.2310112,51.3492462 88.6901673,52.4156419 86.8404329,54.3317856 C82.2075601,59.1285628 82.7084115,67.3604358 86.2029863,72.672357 C88.4234804,76.0464704 92.9165051,78.7931025 97.1168253,77.7908982 C101.121195,76.8360367 103.266887,72.7365496 103.436006,68.95 C103.572601,65.8438896 102.594478,62.5813104 103.943361,59.6589514 C105.096294,57.1650763 107.437936,55.3002866 110.074721,54.5123243 C116.188195,52.6820386 122.363462,56.6250569 128.307817,53.3368014 C135.118905,49.5671028 137.0906,38.7490775 132.547978,32.5480914 C128.661503,27.2458012 122.03173,27.7111964 117.05005,31.0636445 Z M122.013571,40.9110242 C121.111062,40.8147358 120.033745,40.6093203 119.432073,39.8687008 C118.83528,39.1345007 119.140181,38.2759275 119.763806,37.6733218 C119.771123,37.6685075 119.776002,37.6612862 119.782506,37.656472 C120.224003,37.2344074 120.785021,36.9022117 121.329777,36.6285913 C122.802247,35.8919841 125.349596,35.2741324 126.469194,36.9294944 C127.190386,37.9966934 126.723684,39.2372121 125.807353,40.018755 C124.797523,40.8773233 123.3031,41.0474328 122.013571,40.9110242 Z" id="Shape"></path>
            </g>
            <path d="M46.7863492,62.3249885 C47.5612813,58.675851 56.011344,62.1322743 60.8590894,61.2739841 C65.7068348,60.4156939 73.8075082,54.4386257 75.9913874,58.7430241 C78.1752665,63.0474225 74.393568,69.8895904 63.9075773,71.3073351 C53.4215867,72.7250798 46.011417,65.974126 46.7863492,62.3249885 Z" id="Path-2"></path>
            <path d="M106.681015,29.5850507 C109.577212,31.0653363 113.737383,27.3531882 117.576436,17.9052779 C121.415489,8.45736767 103.846358,7.73570302 103.846358,16.8438881 C103.846358,23.5055379 103.784818,28.104765 106.681015,29.5850507 Z" id="Path-4"></path>
            <path d="M18.7852083,33.281489 C21.5867233,31.2639268 14.9016268,25.3042501 14.9016268,18.7167552 C14.9016268,12.1292604 2.59615385,9.47803188 2.59615385,20.4937812 C2.59615385,31.5095305 15.9836934,35.2990513 18.7852083,33.281489 Z" id="Path-5"></path>
        </g>
    </g>
</svg>